<svg width="20" height="19" viewBox="0 0 20 19" fill="none" xmlns="http://www.w3.org/2000/svg">
<path d="M19.0966 6.9125C19.039 6.74268 18.9329 6.59347 18.7914 6.48328C18.6499 6.3731 18.4792 6.30675 18.3005 6.29245L13.0713 5.87694L10.8085 0.867922C10.7364 0.706592 10.6192 0.569566 10.471 0.473381C10.3228 0.377196 10.1499 0.325964 9.9732 0.325867C9.79651 0.32577 9.62356 0.376812 9.47523 0.472835C9.32691 0.568857 9.20954 0.705754 9.1373 0.867005L6.87449 5.87694L1.64533 6.29245C1.46964 6.30636 1.30168 6.3706 1.16154 6.47748C1.02141 6.58436 0.915026 6.72934 0.85513 6.89509C0.795235 7.06085 0.784361 7.24035 0.823808 7.41212C0.863256 7.58389 0.951355 7.74065 1.07757 7.86367L4.94187 11.6307L3.57519 17.5487C3.5337 17.7279 3.547 17.9153 3.61337 18.0868C3.67974 18.2583 3.79612 18.4059 3.94741 18.5104C4.0987 18.6149 4.2779 18.6716 4.46178 18.673C4.64565 18.6744 4.8257 18.6205 4.97856 18.5183L9.9729 15.1887L14.9672 18.5183C15.1235 18.622 15.3077 18.6754 15.4952 18.6713C15.6827 18.6672 15.8645 18.6057 16.016 18.4953C16.1675 18.3848 16.2816 18.2305 16.3429 18.0533C16.4041 17.876 16.4097 17.6843 16.3587 17.5038L14.6811 11.6335L18.8416 7.88935C19.1141 7.64353 19.214 7.26013 19.0966 6.9125Z" fill="#F3CD03"/>
</svg>
