<svg width="23" height="23" viewBox="0 0 23 23" fill="none" xmlns="http://www.w3.org/2000/svg">
<path d="M5.99748 13.6308L4.6308 19.5488C4.58848 19.728 4.60118 19.9158 4.66725 20.0877C4.73332 20.2596 4.84969 20.4075 5.00115 20.5122C5.15261 20.6169 5.33213 20.6735 5.51625 20.6746C5.70038 20.6757 5.88056 20.6212 6.03325 20.5183L11.0276 17.1888L16.0219 20.5183C16.1782 20.6221 16.3624 20.6755 16.5499 20.6714C16.7374 20.6673 16.9191 20.6058 17.0707 20.4953C17.2222 20.3849 17.3363 20.2306 17.3976 20.0534C17.4588 19.8761 17.4643 19.6844 17.4134 19.5039L15.7358 13.6336L19.8963 9.88944C20.0296 9.76946 20.1247 9.61304 20.17 9.43955C20.2153 9.26605 20.2088 9.08308 20.1512 8.91327C20.0936 8.74345 19.9875 8.59424 19.8461 8.48408C19.7046 8.37392 19.5339 8.30764 19.3552 8.29345L14.126 7.87703L11.8632 2.86801C11.791 2.70672 11.6737 2.56976 11.5255 2.47366C11.3772 2.37755 11.2043 2.32642 11.0276 2.32642C10.8509 2.32642 10.678 2.37755 10.5297 2.47366C10.3814 2.56976 10.2641 2.70672 10.192 2.86801L7.92917 7.87703L2.70002 8.29254C2.52433 8.30645 2.35637 8.37069 2.21623 8.47757C2.07609 8.58445 1.96971 8.72943 1.90982 8.89518C1.84992 9.06094 1.83905 9.24044 1.8785 9.41221C1.91794 9.58398 2.00604 9.74074 2.13225 9.86376L5.99748 13.6308ZM8.61435 9.66288C8.77807 9.64998 8.9353 9.59328 9.06957 9.49871C9.20384 9.40414 9.31019 9.27519 9.37749 9.12538L11.0276 5.47387L12.6777 9.12538C12.745 9.27519 12.8513 9.40414 12.9856 9.49871C13.1199 9.59328 13.2771 9.64998 13.4408 9.66288L17.0841 9.95181L14.0838 12.6521C13.8233 12.887 13.7197 13.2484 13.8151 13.5859L14.9644 17.608L11.5376 15.3231C11.3872 15.2222 11.2101 15.1683 11.029 15.1683C10.8478 15.1683 10.6708 15.2222 10.5204 15.3231L6.93948 17.7107L7.90257 13.5409C7.93789 13.3876 7.93315 13.2277 7.88881 13.0767C7.84448 12.9257 7.76203 12.7887 7.64942 12.6787L4.86286 9.9619L8.61435 9.66288Z" fill="#F3CD03"/>
</svg>
